<svg width="24" height="24" viewBox="0 0 24 24" fill="none" xmlns="http://www.w3.org/2000/svg">
<g id="Icons Unique">
<g id="Shape">
<path fillRule="evenodd" clipRule="evenodd" d="M22 13L2 13L2 11L22 11L22 13Z" fill="#0F1202" fillOpacity="0.87"/>
<path fillRule="evenodd" clipRule="evenodd" d="M22 10L2 10L2 8L22 8L22 10Z" fill="#0F1202" fillOpacity="0.87"/>
<path fillRule="evenodd" clipRule="evenodd" d="M22 7L2 7L2 5L22 5L22 7Z" fill="#0F1202" fillOpacity="0.87"/>
<path fillRule="evenodd" clipRule="evenodd" d="M22 16L2 16L2 14L22 14L22 16Z" fill="#0F1202" fillOpacity="0.87"/>
<path fillRule="evenodd" clipRule="evenodd" d="M22 19L2 19L2 17L22 17L22 19Z" fill="#0F1202" fillOpacity="0.87"/>
<path fillRule="evenodd" clipRule="evenodd" d="M22 22L2 22L2 20L22 20L22 22Z" fill="#0F1202" fillOpacity="0.87"/>
<path fillRule="evenodd" clipRule="evenodd" d="M22 4L2 4L2 2L22 2L22 4Z" fill="#0F1202" fillOpacity="0.87"/>
</g>
</g>
</svg>
