<svg width="24" height="24" viewBox="0 0 24 24" fill="none" xmlns="http://www.w3.org/2000/svg">
<g clipPath="url(#clip0_2017_8647)">
<path d="M24 12C24 18.6274 18.6274 24 12 24C5.37258 24 0 18.6274 0 12C0 5.37258 5.37258 0 12 0C18.6274 0 24 5.37258 24 12Z" fill="#39FF88"/>
<path d="M20 12C20 16.4183 16.4183 20 12 20V16.7742C14.6367 16.7742 16.7742 14.6367 16.7742 12C16.7742 9.36329 14.6367 7.22581 12 7.22581C9.36329 7.22581 7.22581 9.36329 7.22581 12H4C4 7.58172 7.58172 4 12 4C16.4183 4 20 7.58172 20 12Z" fill="black"/>
</g>
<defs>
<clipPath id="clip0_2017_8647">
<rect width="24" height="24" rx="12" fill="white"/>
</clipPath>
</defs>
</svg>
