<svg width="24" height="24" viewBox="0 0 24 24" fill="none" xmlns="http://www.w3.org/2000/svg">
<path d="M24 12C24 18.6274 18.6274 24 12 24C5.37258 24 0 18.6274 0 12C0 5.37258 5.37258 0 12 0C18.6274 0 24 5.37258 24 12Z" fill="#F0D332"/>
<path d="M16.1888 10.1032L20 6.29204L18.2129 4.5L13.6563 9.05663V15.0005L18.2129 19.5522L20 17.7651L16.1888 13.9539V10.1032Z" fill="#0D0D0C"/>
<path d="M4 6.29204L7.81611 10.1032V13.9539L4 17.7651L5.79204 19.5522L10.3438 15.0005V9.05663L5.79204 4.5L4 6.29204Z" fill="#0D0D0C"/>
</svg>
