<svg width="24" height="24" viewBox="0 0 24 24" fill="none" xmlns="http://www.w3.org/2000/svg">
<path d="M24 12C24 18.6274 18.6274 24 12 24C5.37258 24 0 18.6274 0 12C0 5.37258 5.37258 0 12 0C18.6274 0 24 5.37258 24 12Z" fill="#0B0B13"/>
<path fillRule="evenodd" clipRule="evenodd" d="M12.1154 15.1769V17.3H4.5V6.5H7.13076V15.1769H12.1154ZM17.1929 11.7615C17.8191 11.8954 18.3206 12.2046 18.7006 12.6923C19.0806 13.18 19.2698 13.7354 19.2698 14.3616C19.2698 15.2646 18.9545 15.98 18.3237 16.5077C17.6929 17.0354 16.8129 17.3 15.6853 17.3H14.2201V15.1769H15.2237C15.6652 15.1769 16.0052 15.0769 16.2468 14.8769C16.4883 14.6769 16.6083 14.3877 16.6083 14.0077C16.6083 13.6277 16.4822 13.3308 16.2314 13.1154C15.9806 12.9 15.6345 12.7923 15.193 12.7923H9.23556V10.8693H15.0083C15.4391 10.8693 15.7699 10.7739 16.0006 10.5846C16.2314 10.3954 16.3468 10.1154 16.3468 9.74618C16.3468 9.37694 16.2314 9.09536 16.0006 8.9C15.7699 8.70464 15.4391 8.60768 15.0083 8.60768H9.23556V6.5H15.516C16.6129 6.5 17.4729 6.75074 18.0929 7.25384C18.7129 7.75694 19.0237 8.43848 19.0237 9.30002C19.0237 9.93536 18.8575 10.4646 18.5237 10.8846C18.1898 11.3046 17.7468 11.5969 17.1929 11.7615Z" fill="white"/>
</svg>
