<svg width="24" height="24" viewBox="0 0 24 24" fill="none" xmlns="http://www.w3.org/2000/svg">
<path d="M24 12C24 18.6274 18.6274 24 12 24C5.37258 24 0 18.6274 0 12C0 5.37258 5.37258 0 12 0C18.6274 0 24 5.37258 24 12Z" fill="#13F4C2"/>
<path fillRule="evenodd" clipRule="evenodd" d="M13.9827 5H19.2549L14.4519 11.8412H9.46364L13.9827 5ZM14.3769 5.73298L10.8263 11.1082H14.0709L17.8447 5.73298H14.3769Z" fill="black"/>
<path fillRule="evenodd" clipRule="evenodd" d="M9.51586 12.1344H14.49L19.2514 18.9756H13.9944L9.51586 12.1344ZM10.8718 12.8674L14.3906 18.2426H17.8482L14.1071 12.8674H10.8718Z" fill="black"/>
<path fillRule="evenodd" clipRule="evenodd" d="M4.5 5H8.85735L12.8888 11.8412H8.78405L4.5 5ZM9.29714 19H4.50831L8.78405 12.1344H12.8888L9.29714 19Z" fill="black"/>
</svg>
